<svg xmlns="http://www.w3.org/2000/svg" viewBox="0 0 115.92 34.25"><defs><style>.cls-1{fill:#be1f3b;}.cls-2{fill:#4e1e66;}</style></defs><g id="Capa_2" data-name="Capa 2"><g id="Capa_1-2" data-name="Capa 1"><path class="cls-1" d="M25,22.91a13,13,0,0,1-.79,4.74A8.39,8.39,0,0,1,21.92,31a10.57,10.57,0,0,1-3.6,2,14.35,14.35,0,0,1-4.64.7H3a.48.48,0,0,1-.36-.13.5.5,0,0,1-.14-.37V4.63H8l-.36.82v23.8h5.93a8.6,8.6,0,0,0,3.85-.74,4.63,4.63,0,0,0,2.16-2.23,8.58,8.58,0,0,0,.7-3.69V13.41a12.5,12.5,0,0,0-.18-2.27,6.63,6.63,0,0,0-.56-1.73,4.61,4.61,0,0,0-1-1.31,5.08,5.08,0,0,0-1.3-.79,7.49,7.49,0,0,0-1.65-.43,15.6,15.6,0,0,0-2.22-.13H.5a.43.43,0,0,1-.25-.07A.39.39,0,0,1,.07,6.5.43.43,0,0,1,0,6.25v-4H13.54a16.57,16.57,0,0,1,5.07.7A8.9,8.9,0,0,1,22.21,5a8.67,8.67,0,0,1,2.11,3.4,14,14,0,0,1,.7,4.65Z"/><path class="cls-2" d="M34.7,27.22a2.58,2.58,0,0,0,.76,2,3.35,3.35,0,0,0,2.3.69,10,10,0,0,0,2.72-.35A8.82,8.82,0,0,0,43,28.35,15,15,0,0,0,45.63,26v3.91H44.28a7.3,7.3,0,0,1-1.78,2.32A7.39,7.39,0,0,1,40,33.71a9.75,9.75,0,0,1-3.19.49,7.83,7.83,0,0,1-3.65-.79,5.53,5.53,0,0,1-2.36-2.23,6.62,6.62,0,0,1-.83-3.42V26.28a6.82,6.82,0,0,1,.49-2.66,5.67,5.67,0,0,1,1.42-2,6.42,6.42,0,0,1,2.23-1.28A8.9,8.9,0,0,1,37,19.89h8.78c.24,0,.42.18.56.54a4.61,4.61,0,0,1,.25,1.28c0,.5,0,1,0,1.37H37.76a5,5,0,0,0-1.38.18,2.38,2.38,0,0,0-1,.59,3.07,3.07,0,0,0-.52.83,2.75,2.75,0,0,0-.2,1.11Zm14.85-9.13v9.63a2.91,2.91,0,0,0,.11.9,1.71,1.71,0,0,0,.29.59,1.34,1.34,0,0,0,.52.26,2.07,2.07,0,0,0,.7.1h1.17v3.68a.5.5,0,0,1-.14.37.48.48,0,0,1-.36.13H50a5.91,5.91,0,0,1-2.09-.34,4.39,4.39,0,0,1-1.62-1,4.51,4.51,0,0,1-1.08-1.64,6,6,0,0,1-.38-2.23V18a5.47,5.47,0,0,0-.5-2.55,2.74,2.74,0,0,0-1.62-1.3,9.79,9.79,0,0,0-3.1-.39,22.16,22.16,0,0,0-2.5.14,19.7,19.7,0,0,0-2.34.4c-.77.19-1.54.41-2.32.68h-.76V11.21a.72.72,0,0,1,0-.28.73.73,0,0,1,.09-.13,4.15,4.15,0,0,1,1.44-.63,21.23,21.23,0,0,1,2.86-.63,22,22,0,0,1,3.49-.27,18.43,18.43,0,0,1,4.5.49,7.62,7.62,0,0,1,3.1,1.56A6.26,6.26,0,0,1,49,14,12.28,12.28,0,0,1,49.55,18.09Z"/><path class="cls-2" d="M58.5,5.62V0h4.28A.4.4,0,0,1,63,.07a.55.55,0,0,1,.18.15.47.47,0,0,1,.07.28V26.82A5.93,5.93,0,0,0,63.36,28a1.24,1.24,0,0,0,.41.72,1.77,1.77,0,0,0,.76.45,4.2,4.2,0,0,0,1.17.13h2.07v4a.49.49,0,0,1-.13.37.48.48,0,0,1-.36.13h-2.7a7.75,7.75,0,0,1-2.7-.41,4.59,4.59,0,0,1-3-3.23,10.9,10.9,0,0,1-.36-3V5.62Z"/><path class="cls-2" d="M83.34,9.22a10.93,10.93,0,0,1,5.06,1.15,8.59,8.59,0,0,1,3.54,3.38,10.8,10.8,0,0,1,1.3,5.55v3.47a.45.45,0,0,1-.07.25.31.31,0,0,1-.15.15.5.5,0,0,1-.27,0H77L76.55,20h12v-.82a10,10,0,0,0-.34-2.79,3.78,3.78,0,0,0-1.1-1.84,3.57,3.57,0,0,0-1.57-1,7.69,7.69,0,0,0-2.21-.29,5.59,5.59,0,0,0-4.07,1.39c-1,.94-1.42,2.46-1.42,4.59v4.95a7.24,7.24,0,0,0,.36,2.39,4.77,4.77,0,0,0,1,1.75,5.24,5.24,0,0,0,2.2,1.27,11.6,11.6,0,0,0,3.2.4,20.45,20.45,0,0,0,2.9-.18,14.6,14.6,0,0,0,2.32-.52A17.4,17.4,0,0,0,92,28.53h.76v3.55a.34.34,0,0,1,0,.18.77.77,0,0,1-.14.19,4.87,4.87,0,0,1-1.62.83,17.47,17.47,0,0,1-2.9.69,21.8,21.8,0,0,1-3.62.28,16.29,16.29,0,0,1-4.8-.66,9.83,9.83,0,0,1-3.6-1.91,8.13,8.13,0,0,1-2.22-3.13,11.22,11.22,0,0,1-.77-4.3V19.39A11.72,11.72,0,0,1,73.85,15,8.63,8.63,0,0,1,76,11.81a9.22,9.22,0,0,1,3.28-1.93A12.2,12.2,0,0,1,83.34,9.22Z"/><path class="cls-2" d="M98.28,9.72h17.15a.45.45,0,0,1,.36.14.48.48,0,0,1,.13.35v4H98.78a.37.37,0,0,1-.18,0,.64.64,0,0,1-.16-.11.57.57,0,0,1-.11-.16.41.41,0,0,1,0-.18v-4Zm17.64,19.49v4a.49.49,0,0,1-.13.37.48.48,0,0,1-.36.13h-3.51a13.47,13.47,0,0,1-4-.54A7.38,7.38,0,0,1,105,31.54a7.15,7.15,0,0,1-1.82-2.87,12.44,12.44,0,0,1-.63-4.19V2.25h4.27a.45.45,0,0,1,.25.07.51.51,0,0,1,.25.43V24a8.67,8.67,0,0,0,.31,2.54,3.89,3.89,0,0,0,1,1.64A3.24,3.24,0,0,0,110,29a8.22,8.22,0,0,0,2.07.23h3.82Z"/></g></g></svg>