<svg xmlns="http://www.w3.org/2000/svg" viewBox="0 0 116.27 139.92"><defs><style>.cls-1{fill:#541d63;}.cls-2{fill:#9f9fa0;stroke:#9f9fa0;stroke-miterlimit:10;}.cls-3{fill:#cd6c36;}.cls-4{fill:#c0293e;}.cls-5{fill:#be1f3b;}.cls-6{fill:#4e1e66;}</style></defs><g id="Capa_2" data-name="Capa 2"><g id="Capa_1-2" data-name="Capa 1"><path class="cls-1" d="M115.9,3.54c-3.46.35-8.22,1-13.8,2.06C88.87,8.2,75.87,10.77,66.36,17A31.25,31.25,0,0,0,57,26.28l0,0a31.35,31.35,0,0,0-4.44,11.58,41.4,41.4,0,0,0-.63,6.29,17,17,0,0,0-.86-4.48c-.8-2.36-1.77-3.45-3-6.61,0,0,0,0,0,0a12.3,12.3,0,0,1-1.38-4.86c0-.09,0-.18,0-.28s0-.46,0-.73,0-.76.06-1.19a12.57,12.57,0,0,1,1.17-4.14c.09-.17.17-.34.27-.51a1.09,1.09,0,0,1,.08-.15l.26-.43.24-.36c.12-.18.25-.34.38-.5a.76.76,0,0,1,.11-.14,5.37,5.37,0,0,1,.37-.44L50,19c.16-.16.31-.31.46-.44.65-.49,1.89-1.44,3.63-2.65C60.5,11.4,73.61,3.28,87.67.83a57.23,57.23,0,0,1,22.21.51A43.14,43.14,0,0,1,115.9,3.54Z"/><path class="cls-2" d="M31.76,85.92a26,26,0,0,0-10,5.21c1.78-3,4.39-7.23,7.66-12.26l1.95-3a11.3,11.3,0,0,0,.35,10Z"/><path class="cls-3" d="M52.08,52.79c0,.27-.13,1.11-.31,2.17,0,0-.18,1-.41,2a35.61,35.61,0,0,1-3.1,8.64,30.49,30.49,0,0,1-2.62,3.87c-.39.51-.73.92-1,1.2a9.94,9.94,0,0,0-4-.61,10.73,10.73,0,0,0-3.38.78,14.25,14.25,0,0,0-4.4,2.67c3.38-5.19,6.3-9.62,9-13.55l.11-.16q5-7,9.9-13.1A29.83,29.83,0,0,1,52.08,52.79Z"/><path class="cls-4" d="M116.27,3.71c-2,.75-4.56,1.74-7.49,3l-.31.13-.11,0a167.83,167.83,0,0,0-18.9,9.31l-.36.21c-.83.48-1.68,1-2.54,1.5-.7.42-1.42.85-2.13,1.3l-1,.62q-1.5.93-3,2l-.12.08c-.66.43-1.33.89-2,1.35s-1.48,1-2.2,1.54c-.37.26-.74.52-1.1.79q-1.68,1.18-3.3,2.4h0a.19.19,0,0,1,0,.08,135.13,135.13,0,0,0-10.81,9.28q-1.21,1.15-2.43,2.37l-.1.1c-2.29,2.31-4.39,4.59-6.41,7a19.69,19.69,0,0,0,0-2.55,41.4,41.4,0,0,1,.63-6.29A31.35,31.35,0,0,1,57,26.33l0,0A31.25,31.25,0,0,1,66.36,17C75.87,10.77,88.87,8.2,102.1,5.6c5.58-1.1,10.34-1.71,13.8-2.06Z"/><path class="cls-5" d="M25,128.58a13,13,0,0,1-.79,4.74,8.39,8.39,0,0,1-2.31,3.38,10.57,10.57,0,0,1-3.6,2,14.35,14.35,0,0,1-4.64.7H3a.48.48,0,0,1-.36-.13.49.49,0,0,1-.14-.36V110.31H8l-.36.81v23.8h5.93a8.6,8.6,0,0,0,3.85-.74A4.63,4.63,0,0,0,19.55,132a8.58,8.58,0,0,0,.7-3.69v-9.18a12.5,12.5,0,0,0-.18-2.27,6.63,6.63,0,0,0-.56-1.73,4.61,4.61,0,0,0-1-1.31,5.08,5.08,0,0,0-1.3-.79,7.5,7.5,0,0,0-1.65-.42,15.44,15.44,0,0,0-2.22-.14H.5a.43.43,0,0,1-.25-.07.39.39,0,0,1-.18-.18.4.4,0,0,1-.07-.24v-4H13.54a16.57,16.57,0,0,1,5.07.7,8.9,8.9,0,0,1,3.6,2.09,8.67,8.67,0,0,1,2.11,3.4,14,14,0,0,1,.7,4.66Z"/><path class="cls-6" d="M34.7,132.9a2.57,2.57,0,0,0,.76,2,3.3,3.3,0,0,0,2.3.7,10,10,0,0,0,2.72-.36A8.82,8.82,0,0,0,43,134a15,15,0,0,0,2.61-2.34v3.92H44.28A7.56,7.56,0,0,1,40,139.38a9.75,9.75,0,0,1-3.19.49,7.83,7.83,0,0,1-3.65-.79,5.57,5.57,0,0,1-2.36-2.22,6.67,6.67,0,0,1-.83-3.42V132a6.73,6.73,0,0,1,.49-2.65,5.62,5.62,0,0,1,1.42-2A6.42,6.42,0,0,1,34.07,126a8.9,8.9,0,0,1,2.92-.45h8.78c.24,0,.42.18.56.54a4.61,4.61,0,0,1,.25,1.28c0,.5,0,1,0,1.38H37.76a4.62,4.62,0,0,0-1.38.18,2.36,2.36,0,0,0-1,.58,3.07,3.07,0,0,0-.52.83,2.75,2.75,0,0,0-.2,1.11Zm14.85-9.14v9.63a2.91,2.91,0,0,0,.11.9,1.71,1.71,0,0,0,.29.59,1.51,1.51,0,0,0,.52.27,2.38,2.38,0,0,0,.7.09h1.17v3.69a.49.49,0,0,1-.14.36.48.48,0,0,1-.36.13H50a5.91,5.91,0,0,1-2.09-.34,4.53,4.53,0,0,1-2.7-2.65,6,6,0,0,1-.38-2.23V123.63a5.47,5.47,0,0,0-.5-2.55,2.74,2.74,0,0,0-1.62-1.3,9.83,9.83,0,0,0-3.1-.38,22.22,22.22,0,0,0-2.5.13,19.7,19.7,0,0,0-2.34.41,23.24,23.24,0,0,0-2.32.67h-.76v-3.73a.64.64,0,0,1,0-.27.56.56,0,0,1,.09-.14,4.15,4.15,0,0,1,1.44-.63,21.23,21.23,0,0,1,2.86-.63,22,22,0,0,1,3.49-.27,17.91,17.91,0,0,1,4.5.5,7.6,7.6,0,0,1,3.1,1.55,6.26,6.26,0,0,1,1.8,2.72A12.28,12.28,0,0,1,49.55,123.76Z"/><path class="cls-6" d="M58.5,111.3v-5.63h4.28a.4.4,0,0,1,.24.07.47.47,0,0,1,.18.16.41.41,0,0,1,.07.27v26.32a5.93,5.93,0,0,0,.09,1.13,1.24,1.24,0,0,0,.41.72,1.77,1.77,0,0,0,.76.45,4.2,4.2,0,0,0,1.17.13h2.07v4a.45.45,0,0,1-.49.49h-2.7a8,8,0,0,1-2.7-.4,4.86,4.86,0,0,1-1.89-1.2,4.7,4.7,0,0,1-1.13-2,10.88,10.88,0,0,1-.36-3V111.3Z"/><path class="cls-6" d="M83.34,114.9A10.93,10.93,0,0,1,88.4,116a8.59,8.59,0,0,1,3.54,3.38,10.84,10.84,0,0,1,1.3,5.56v3.46a.43.43,0,0,1-.07.25.39.39,0,0,1-.15.16.64.64,0,0,1-.27,0H77l-.4-3.19h12v-.81a10,10,0,0,0-.34-2.79,3.77,3.77,0,0,0-1.1-1.85,3.57,3.57,0,0,0-1.57-1,7.69,7.69,0,0,0-2.21-.29,5.55,5.55,0,0,0-4.07,1.4q-1.42,1.39-1.42,4.59v5a7.22,7.22,0,0,0,.36,2.38,4.89,4.89,0,0,0,1,1.76,5.12,5.12,0,0,0,2.2,1.26,11.23,11.23,0,0,0,3.2.4,20.45,20.45,0,0,0,2.9-.18,14.6,14.6,0,0,0,2.32-.52A17.4,17.4,0,0,0,92,134.2h.76v3.56a.39.39,0,0,1,0,.18.73.73,0,0,1-.14.18A4.68,4.68,0,0,1,91,139a17.4,17.4,0,0,1-2.9.7,23,23,0,0,1-3.62.27,16.29,16.29,0,0,1-4.8-.66,9.83,9.83,0,0,1-3.6-1.91,8.13,8.13,0,0,1-2.22-3.13,11.21,11.21,0,0,1-.77-4.29v-4.86a11.74,11.74,0,0,1,.77-4.39,8.63,8.63,0,0,1,2.16-3.2,9.22,9.22,0,0,1,3.28-1.93A12.46,12.46,0,0,1,83.34,114.9Z"/><path class="cls-6" d="M98.28,115.39h17.15a.49.49,0,0,1,.36.14.48.48,0,0,1,.13.36v4H98.78a.37.37,0,0,1-.18,0,.64.64,0,0,1-.16-.11.57.57,0,0,1-.11-.16.41.41,0,0,1,0-.18v-4Zm17.64,19.49v4.05a.45.45,0,0,1-.49.49h-3.51a13.47,13.47,0,0,1-4-.54,7.37,7.37,0,0,1-2.92-1.66,7.19,7.19,0,0,1-1.82-2.88,12.44,12.44,0,0,1-.63-4.19V107.92h4.27a.45.45,0,0,1,.25.07.51.51,0,0,1,.25.43V129.7a8.67,8.67,0,0,0,.31,2.54,3.93,3.93,0,0,0,1,1.65,3.32,3.32,0,0,0,1.44.76,8.22,8.22,0,0,0,2.07.23h3.82Z"/></g></g></svg>