<svg xmlns="http://www.w3.org/2000/svg" viewBox="0 0 96.42 93.42"><defs><style>.cls-1{fill:#541d63;}.cls-2{fill:#9f9fa0;stroke:#9f9fa0;stroke-miterlimit:10;}.cls-3{fill:#cd6c36;}.cls-4{fill:#c0293e;}</style></defs><g id="Capa_2" data-name="Capa 2"><g id="Capa_1-2" data-name="Capa 1"><path class="cls-1" d="M96.05,3.54c-3.46.35-8.22,1-13.8,2.06C69,8.2,56,10.77,46.51,17a31.25,31.25,0,0,0-9.33,9.24l0,0a31.35,31.35,0,0,0-4.44,11.58,41.4,41.4,0,0,0-.63,6.29,17,17,0,0,0-.86-4.48c-.8-2.36-1.77-3.45-2.95-6.61,0,0,0,0,0,0a12.3,12.3,0,0,1-1.38-4.86c0-.09,0-.18,0-.28s0-.46,0-.73,0-.76.06-1.19a12.57,12.57,0,0,1,1.17-4.14c.09-.17.17-.34.27-.51a1.09,1.09,0,0,1,.08-.15l.26-.43.24-.36c.12-.18.25-.34.38-.5a.76.76,0,0,1,.11-.14,5.37,5.37,0,0,1,.37-.44l.36-.38c.16-.16.31-.31.46-.44.65-.49,1.89-1.44,3.63-2.65,6.42-4.48,19.53-12.6,33.59-15A57.23,57.23,0,0,1,90,1.34,43.14,43.14,0,0,1,96.05,3.54Z"/><path class="cls-2" d="M11.91,85.92A26,26,0,0,0,2,91.13c1.78-3,4.39-7.23,7.66-12.26l2-3a11.3,11.3,0,0,0,.35,10Z"/><path class="cls-3" d="M32.23,52.79c0,.27-.13,1.11-.31,2.17,0,0-.18,1-.41,2a35.61,35.61,0,0,1-3.1,8.64,30.49,30.49,0,0,1-2.62,3.87c-.39.51-.73.92-1,1.2a9.94,9.94,0,0,0-4-.61,10.73,10.73,0,0,0-3.38.78,14.25,14.25,0,0,0-4.4,2.67c3.38-5.19,6.3-9.62,9-13.55l.11-.16q5-7,9.9-13.1A29.83,29.83,0,0,1,32.23,52.79Z"/><path class="cls-4" d="M96.42,3.71c-2,.75-4.56,1.74-7.49,3l-.31.13-.11,0a167.83,167.83,0,0,0-18.9,9.31l-.36.21c-.83.48-1.68,1-2.54,1.5-.7.42-1.42.85-2.13,1.3l-1,.62q-1.5.93-3,2l-.12.08c-.66.43-1.33.89-2,1.35s-1.48,1-2.2,1.54c-.37.26-.74.52-1.1.79q-1.68,1.18-3.3,2.4h0a.19.19,0,0,1,0,.08A135.13,135.13,0,0,0,41,37.31q-1.22,1.15-2.43,2.37l-.1.1c-2.29,2.31-4.39,4.59-6.41,7a19.69,19.69,0,0,0,0-2.55,41.4,41.4,0,0,1,.63-6.29,31.35,31.35,0,0,1,4.44-11.58l0,0A31.25,31.25,0,0,1,46.51,17C56,10.77,69,8.2,82.25,5.6c5.58-1.1,10.34-1.71,13.8-2.06Z"/></g></g></svg>