<svg xmlns="http://www.w3.org/2000/svg" viewBox="0 0 825.79 248.9"><defs><style>.cls-1{fill:#faf7ee;stroke:#faf7ee;}.cls-1,.cls-3,.cls-4,.cls-5{stroke-miterlimit:10;stroke-width:0.25px;}.cls-2{fill:#484848;}.cls-3{fill:#07b;stroke:#07b;}.cls-4{fill:#ffed27;stroke:#ffed27;}.cls-5{fill:#e3610b;stroke:#e3610b;}</style></defs><g id="Capa_2" data-name="Capa 2"><g id="test_logo" data-name="test logo"><polygon class="cls-1" points="682.72 46.27 656.23 202.56 139.87 202.56 152.47 128.24 166.35 46.27 682.72 46.27"/><path class="cls-2" d="M238.57,131l6-29.55h-1.35l-28.65,53.85-10.5-53.85h-1.35L199,131l-7.8,46.65H172l17.55-104.7h25.35l7.2,35.55h1.35l18.9-35.55h25.2L250,177.62h-19.2Z"/><path class="cls-2" d="M321.82,177.62l3-18.58h-.75a74.31,74.31,0,0,1-4.72,8.23,33,33,0,0,1-5.55,6.41,23.12,23.12,0,0,1-6.9,4.23,23.73,23.73,0,0,1-8.78,1.51,23.46,23.46,0,0,1-10.42-2.1,17.73,17.73,0,0,1-7-6.08,27.79,27.79,0,0,1-4-9.52,55,55,0,0,1-1.28-12.3A79.8,79.8,0,0,1,278,128.49a51.7,51.7,0,0,1,7.2-16.05A33.89,33.89,0,0,1,296.4,102.1,29.26,29.26,0,0,1,311,98.42q9.15,0,13.88,4.31t6.37,12h1.05l2.4-14.54h21.9l-12.9,77.4Zm-13.95-15.3a13.39,13.39,0,0,0,7.2-1.94,22.64,22.64,0,0,0,5.85-5.36,41.62,41.62,0,0,0,4.05-5.89,23.92,23.92,0,0,0,3-8.57l2.1-12.37c.7-4.08.08-7.2-1.87-9.39s-5.33-3.28-10.13-3.28q-8.1,0-12.45,4.69t-5.85,13.49l-1.5,9a23.35,23.35,0,0,0-.45,3c-.1,1.15-.15,2.36-.15,3.65a19.11,19.11,0,0,0,2.33,9.24Q302.17,162.33,307.87,162.32Z"/><path class="cls-2" d="M409,179.42q-9.9,0-14.47-5.25t-4.58-13.95a41.8,41.8,0,0,1,.23-4.28c.15-1.44.42-3.32.82-5.62l5.55-33h-19.8l2.85-17.1H392q4.8,0,7.28-2t3.22-7l3-18.3h20.4l-4.5,27.3h30.3l-2.85,17.1h-30.3l-7.2,43.2,3,1,23.4-18.45,10.8,12.3-9,7.8q-4.8,4-8.7,7.13a61.48,61.48,0,0,1-7.42,5.09,31,31,0,0,1-7,3A27.49,27.49,0,0,1,409,179.42Z"/><path class="cls-2" d="M506.92,179.42q-17.25,0-25.5-8.78t-8.25-24.22a55.87,55.87,0,0,1,3.3-19.65,44.5,44.5,0,0,1,9.22-15.15A40.53,40.53,0,0,1,500,101.87a48.93,48.93,0,0,1,18.75-3.45,43.57,43.57,0,0,1,11,1.35,29.71,29.71,0,0,1,9.07,4,19.51,19.51,0,0,1,6.15,6.61,18.7,18.7,0,0,1,2.25,9.37,23.88,23.88,0,0,1-1.95,9.3q-2,4.65-7.58,8.47t-15.89,6.45q-10.29,2.64-26.78,3.23a9.23,9.23,0,0,0-.15,1.43v1.12q0,6.3,3.45,9.6t11.4,3.3a26,26,0,0,0,5.78-.6,16.46,16.46,0,0,0,5.09-2.17,30,30,0,0,0,5-4.06,67.53,67.53,0,0,0,5.47-6.37l13.65,8.85a74.22,74.22,0,0,1-6.53,8.17,41.9,41.9,0,0,1-8,6.75,38,38,0,0,1-10.2,4.58A47,47,0,0,1,506.92,179.42Zm9.6-65.55a18.51,18.51,0,0,0-12.3,4.27q-5.1,4.27-7.2,14.33l-.45,2.1a104.27,104.27,0,0,0,16.28-1.95,30.45,30.45,0,0,0,8.84-3.15,8.16,8.16,0,0,0,3.68-3.9,11.65,11.65,0,0,0,.75-3.9Q526.12,113.87,516.52,113.87Z"/><path class="cls-2" d="M602,179.42q-15.9,0-24.6-8.93t-8.7-24.37a58,58,0,0,1,3.22-20,43.2,43.2,0,0,1,9-15,39.06,39.06,0,0,1,13.8-9.45,46.34,46.34,0,0,1,17.78-3.3q15.9,0,24.6,8.93t8.7,24.37a58,58,0,0,1-3.23,19.95,43.2,43.2,0,0,1-9,15,39.06,39.06,0,0,1-13.8,9.45A46.29,46.29,0,0,1,602,179.42Zm1.65-16.35a16.38,16.38,0,0,0,11.77-4.35q4.57-4.35,5.93-12.45l2-11.7c.2-.9.37-1.92.52-3.08a23.93,23.93,0,0,0,.23-3.07q0-6.9-3.53-10.28t-9.67-3.37a16.4,16.4,0,0,0-11.78,4.35q-4.58,4.35-5.92,12.45l-1.95,11.7c-.2.9-.38,1.93-.53,3.08a23.9,23.9,0,0,0-.22,3.07q0,6.9,3.52,10.27T603.67,163.07Z"/><path class="cls-3" d="M825.67,30.65c0,.59,0,1.17,0,1.75h0l-1.13,6.69,0,.07-1.19,7.1-26.48,156.3-3.14,18.58h0l-.74,4.38v0a30.69,30.69,0,0,1-26.15,23.13H132l7.83-46.14H750l2.2-13,22.95-135.5,1.31-7.78L784,2l.33-1.87h13.92A30.71,30.71,0,0,1,825.67,30.65Z"/><polygon class="cls-4" points="166.35 46.27 152.47 128.24 139.87 202.56 132.04 248.71 85.23 248.71 88.25 230.88 88.36 230.22 93.06 202.56 96.36 183.09 96.36 183.07 96.42 182.74 113.67 81 113.67 81 119.55 46.27 166.35 46.27"/><path class="cls-5" d="M119.39,46.27l-5.93,35L96.25,182.77h0L92.9,202.57,88,231.15l-3,17.56-41.38.06a24,24,0,0,1-3.64-.37q-.9-.17-1.68-.36l7.7-45.47,8.84-52.08L63.83,97.9l8.75-51.63Z"/><path class="cls-3" d="M690.54.12l-7.83,46.15H72.38L63.62,97.85l-8.91,52.62h0l-8.83,52.1L38.19,248h0a49.58,49.58,0,0,1-38-45.42c0-.92-.09-1.85-.09-2.79A47.8,47.8,0,0,1,.37,195v-.11L1.54,188l0,0,24-141.65h.25c.14-1.79.36-3.55.65-5.29l.06-.31A49.6,49.6,0,0,1,73.67.12H690.54Z"/><polygon class="cls-5" points="784.09 0.13 783.75 2.08 776.26 46.27 774.98 53.91 751.97 189.63 749.77 202.56 703.03 202.56 729.52 46.27 737.35 0.13 784.09 0.13"/><polygon class="cls-4" points="737.29 0.13 729.48 46.27 702.99 202.56 656.23 202.56 682.72 46.27 690.53 0.13 737.29 0.13"/></g></g></svg>